# xmcd CD database file
#
# Track frame offsets:
#	150
#	23505
#	46506
#	64209
#	79641
#	94385
#	111568
#	134388
#	150131
#	165019
#	179869
#	200914
#	220078
#	239733
#	265409
#	276188
#	301661
#	321419
#	352388
#
# Disc length: 4704 seconds
#
# Revision: 0
# Processed by: cddbd v1.5PL3 Copyright (c) Steve Scherf et al.
# Submitted via: CDex 1.51
#
DISCID=18125e13
DTITLE=Lix - Lestia
DYEAR=2003
DGENRE=Game
TTITLE0=Ragnarok Online Through the Tower -The Decisive Battle-
TTITLE1=聖剣伝説３ Decision Bell -Future Trance mix-
TTITLE2=Ragnarok Online Desert -Crystalic Trance mix-
TTITLE3=Final Fantasy 4 メインテーマ -Digitalic House mix-
TTITLE4=聖剣伝説３ Hightension Wire -Angelic House mix-
TTITLE5=Valkylie Profile 急減至極生命力 -The Highway Breaker-
TTITLE6=Ragnarok Online Backattack!! -Black Bladen mix-
TTITLE7=Ys 2 Ice Ridge of Noltia -Lunatical Dance mix-
TTITLE8=Ragnarok Online Title -180db remix-
TTITLE9=Chrono Trigger 時を渡る翼 -Sunset House mix-
TTITLE10=Ragnarok Online Through the Tower -Lavic Euro mix-
TTITLE11=Ragnarok Online Ancient Groover -Falsic Revival mix-
TTITLE12=英雄伝説４ 守るべき一線 -Flative Reasonation mix-
TTITLE13=Ragnarok Online Dreamer's Dream -Acidic Progress style-
TTITLE14=Final Fantasy 5 新しき世界 -Liberate House mix-
TTITLE15=英雄伝説５ 邪魔する者は容赦しない -Digital Devilish style-
TTITLE16=聖剣伝説３ Sacrifice Part Three -Ancient Spectralic mix-
TTITLE17=Romancing SaGa 3 ラストバトル -Heaven or Hell-
TTITLE18=Data Edition
EXTD=YEAR: 2003
EXTT0=
EXTT1=
EXTT2=
EXTT3=
EXTT4=
EXTT5=
EXTT6=
EXTT7=
EXTT8=
EXTT9=
EXTT10=
EXTT11=
EXTT12=
EXTT13=
EXTT14=
EXTT15=
EXTT16=
EXTT17=
EXTT18=
PLAYORDER=
